<svg xmlns="http://www.w3.org/2000/svg" version="1.1" xmlns:xlink="http://www.w3.org/1999/xlink" width="1000" height="1000"><g clip-path="url(#SvgjsClipPath1065)"><rect width="1000" height="1000" fill="#f5f5f4"></rect><g transform="matrix(1.953125,0,0,1.953125,0,0)"><svg xmlns="http://www.w3.org/2000/svg" version="1.1" xmlns:xlink="http://www.w3.org/1999/xlink" width="512" height="512"><svg width="512" height="512" viewBox="0 0 512 512" fill="none" xmlns="http://www.w3.org/2000/svg">
<g clip-path="url(#clip0_51_83)">
<rect width="512" height="512" fill="#F5F5F4"></rect>
<path d="M393.438 228.375H156.219C131.107 228.375 110.75 248.732 110.75 273.843C110.75 274.669 110.772 275.49 110.815 276.305M110.815 276.305C112.094 300.272 131.933 319.312 156.219 319.312H329C363.294 319.312 380.442 319.312 391.096 329.966C401.75 340.62 401.75 357.767 401.75 392.062V519.375C401.75 553.669 401.75 570.816 391.096 581.47C380.442 592.125 363.294 592.125 329 592.125H219.94C168.498 592.125 142.777 592.125 126.796 576.143C110.815 560.162 110.815 534.441 110.815 483V276.305ZM110.815 276.305V273.866M156.219 273.843H329C346.147 273.843 354.721 273.843 360.048 279.17C365.375 284.497 365.375 293.071 365.375 310.218" stroke="#1C1917" stroke-width="27.2812" stroke-linecap="round" stroke-linejoin="round"></path>
<path d="M319.906 419.343H192.594M265.344 492.093H192.594" stroke="#1C1917" stroke-width="27.2812" stroke-linecap="round" stroke-linejoin="round"></path>
</g>
<defs>
<clipPath id="clip0_51_83">
<rect width="512" height="512" fill="white"></rect>
</clipPath>
<clipPath id="SvgjsClipPath1065"><rect width="1000" height="1000" x="0" y="0" rx="200" ry="200"></rect></clipPath></defs>
</svg></svg></g></g></svg>